<svg xmlns="http://www.w3.org/2000/svg" xmlns:v="https://svgstorm.com"
viewBox = "0 0 225 225"
width="225"
height="225">
<g fill="None" fill-opacity="0.0" stroke="#FDFEFE" stroke-opacity="1.00" stroke-width="0.3"><path d="
M 0.00 102.00 
C 4.45 51.93 47.55 4.94 99.00 1.00
C 99.01 1.00 99.00 0.00 99.00 0.00
L 0.00 0.00
L 0.00 102.00 Z"/>
</g>
<g fill="None" fill-opacity="0.0" stroke="#9FD3EF" stroke-opacity="1.00" stroke-width="0.3"><path d="
M 99.00 1.00 
C 101.22 0.83 104.60 1.88 106.00 0.00
L 99.00 0.00
C 99.00 0.00 99.01 1.00 99.00 1.00 Z"/>
</g>
<g fill="None" fill-opacity="0.0" stroke="#17A1DF" stroke-opacity="1.00" stroke-width="0.3"><path d="
M 99.00 1.00 
C 47.55 4.94 4.45 51.93 0.00 102.00
L 0.00 123.00
C 4.41 173.07 47.57 220.06 99.00 224.00
C 101.22 224.17 104.60 223.12 106.00 225.00
L 121.00 225.00
C 174.75 222.01 222.55 173.76 225.00 120.00
L 225.00 101.00
C 219.92 48.63 172.96 2.29 120.00 0.00
L 106.00 0.00
C 104.60 1.88 101.22 0.83 99.00 1.00
M 123.00 10.00 
C 198.97 17.35 241.18 111.13 196.08 172.08 C 150.99 233.03 57.28 228.57 21.23 159.77 C -14.82 90.97 42.52 2.21 123.00 10.00 Z"/>
</g>
<g fill="None" fill-opacity="0.0" stroke="#FDFEFE" stroke-opacity="1.00" stroke-width="0.3"><path d="
M 225.00 101.00 
L 225.00 0.00
L 120.00 0.00
C 172.96 2.29 219.92 48.63 225.00 101.00 Z"/>
</g>
<g fill="None" fill-opacity="0.0" stroke="#FDFEFE" stroke-opacity="1.00" stroke-width="0.3"><path d="
M 123.00 10.00 
C 42.52 2.21 -14.82 90.97 21.23 159.77 C 57.28 228.57 150.99 233.03 196.08 172.08 C 241.18 111.13 198.97 17.35 123.00 10.00
M 56.00 111.00 
C 55.94 113.97 55.84 117.03 56.00 120.00
C 56.93 137.18 69.15 153.15 85.00 160.00
C 81.50 169.09 80.41 178.88 77.00 188.00
C 17.08 164.20 12.03 71.54 69.00 41.00
C 83.66 63.65 97.29 87.31 113.00 109.00
C 127.15 86.17 142.15 63.97 156.00 41.00
C 213.08 71.52 208.10 164.27 148.00 188.00
C 145.62 178.35 142.00 169.03 141.00 159.00
C 169.12 148.10 178.16 109.58 161.00 86.00
C 148.91 103.84 136.85 122.41 126.00 141.00
C 117.00 141.00 108.00 141.00 99.00 141.00
C 88.33 122.33 76.04 103.80 64.00 86.00
C 59.51 93.60 55.60 101.76 56.00 111.00 Z"/>
</g>
<g fill="None" fill-opacity="0.0" stroke="#0AA0DF" stroke-opacity="1.00" stroke-width="0.3"><path d="
M 56.00 120.00 
C 55.50 116.91 55.64 113.98 56.00 111.00
C 55.60 101.76 59.51 93.60 64.00 86.00
C 76.04 103.80 88.33 122.33 99.00 141.00
C 108.00 141.00 117.00 141.00 126.00 141.00
C 136.85 122.41 148.91 103.84 161.00 86.00
C 178.16 109.58 169.12 148.10 141.00 159.00
C 142.00 169.03 145.62 178.35 148.00 188.00
C 208.10 164.27 213.08 71.52 156.00 41.00
C 142.15 63.97 127.15 86.17 113.00 109.00
C 97.29 87.31 83.66 63.65 69.00 41.00
C 12.03 71.54 17.08 164.20 77.00 188.00
C 80.41 178.88 81.50 169.09 85.00 160.00
C 69.15 153.15 56.93 137.18 56.00 120.00 Z"/>
</g>
<g fill="None" fill-opacity="0.0" stroke="#9AD1EF" stroke-opacity="1.00" stroke-width="0.3"><path d="
M 56.00 120.00 
C 55.84 117.03 55.94 113.97 56.00 111.00
C 55.64 113.98 55.50 116.91 56.00 120.00 Z"/>
</g>
<g fill="None" fill-opacity="0.0" stroke="#FDFEFE" stroke-opacity="1.00" stroke-width="0.3"><path d="
M 121.00 225.00 
L 225.00 225.00
L 225.00 120.00
C 222.55 173.76 174.75 222.01 121.00 225.00 Z"/>
</g>
<g fill="None" fill-opacity="0.0" stroke="#FEFEFE" stroke-opacity="1.00" stroke-width="0.3"><path d="
M 0.00 225.00 
L 99.00 225.00
C 99.00 224.50 99.00 224.00 99.00 224.00
C 47.57 220.06 4.41 173.07 0.00 123.00
L 0.00 225.00 Z"/>
</g>
<g fill="None" fill-opacity="0.0" stroke="#9FD3EF" stroke-opacity="1.00" stroke-width="0.3"><path d="
M 99.00 225.00 
L 106.00 225.00
C 104.60 223.12 101.22 224.17 99.00 224.00
C 99.00 224.00 99.00 224.50 99.00 225.00 Z"/>
</g>
<g fill="#FDFEFE" fill-opacity="1.00" stroke="None">
<path d="
M 0.00 102.00 
C 4.45 51.93 47.55 4.94 99.00 1.00
C 99.01 1.00 99.00 0.00 99.00 0.00
L 0.00 0.00
L 0.00 102.00 Z"/>
</g>
<g fill="#9FD3EF" fill-opacity="1.00" stroke="None">
<path d="
M 99.00 1.00 
C 101.22 0.83 104.60 1.88 106.00 0.00
L 99.00 0.00
C 99.00 0.00 99.01 1.00 99.00 1.00 Z"/>
</g>
<g fill="#17A1DF" fill-opacity="1.00" stroke="None">
<path d="
M 99.00 1.00 
C 47.55 4.94 4.45 51.93 0.00 102.00
L 0.00 123.00
C 4.41 173.07 47.57 220.06 99.00 224.00
C 101.22 224.17 104.60 223.12 106.00 225.00
L 121.00 225.00
C 174.75 222.01 222.55 173.76 225.00 120.00
L 225.00 101.00
C 219.92 48.63 172.96 2.29 120.00 0.00
L 106.00 0.00
C 104.60 1.88 101.22 0.83 99.00 1.00
M 123.00 10.00 
C 198.97 17.35 241.18 111.13 196.08 172.08 C 150.99 233.03 57.28 228.57 21.23 159.77 C -14.82 90.97 42.52 2.21 123.00 10.00 Z"/>
</g>
<g fill="#FDFEFE" fill-opacity="1.00" stroke="None">
<path d="
M 225.00 101.00 
L 225.00 0.00
L 120.00 0.00
C 172.96 2.29 219.92 48.63 225.00 101.00 Z"/>
</g>
<g fill="#FDFEFE" fill-opacity="1.00" stroke="None">
<path d="
M 123.00 10.00 
C 42.52 2.21 -14.82 90.97 21.23 159.77 C 57.28 228.57 150.99 233.03 196.08 172.08 C 241.18 111.13 198.97 17.35 123.00 10.00
M 56.00 111.00 
C 55.94 113.97 55.84 117.03 56.00 120.00
C 56.93 137.18 69.15 153.15 85.00 160.00
C 81.50 169.09 80.41 178.88 77.00 188.00
C 17.08 164.20 12.03 71.54 69.00 41.00
C 83.66 63.65 97.29 87.31 113.00 109.00
C 127.15 86.17 142.15 63.97 156.00 41.00
C 213.08 71.52 208.10 164.27 148.00 188.00
C 145.62 178.35 142.00 169.03 141.00 159.00
C 169.12 148.10 178.16 109.58 161.00 86.00
C 148.91 103.84 136.85 122.41 126.00 141.00
C 117.00 141.00 108.00 141.00 99.00 141.00
C 88.33 122.33 76.04 103.80 64.00 86.00
C 59.51 93.60 55.60 101.76 56.00 111.00 Z"/>
</g>
<g fill="#0AA0DF" fill-opacity="1.00" stroke="None">
<path d="
M 56.00 120.00 
C 55.50 116.91 55.64 113.98 56.00 111.00
C 55.60 101.76 59.51 93.60 64.00 86.00
C 76.04 103.80 88.33 122.33 99.00 141.00
C 108.00 141.00 117.00 141.00 126.00 141.00
C 136.85 122.41 148.91 103.84 161.00 86.00
C 178.16 109.58 169.12 148.10 141.00 159.00
C 142.00 169.03 145.62 178.35 148.00 188.00
C 208.10 164.27 213.08 71.52 156.00 41.00
C 142.15 63.97 127.15 86.17 113.00 109.00
C 97.29 87.31 83.66 63.65 69.00 41.00
C 12.03 71.54 17.08 164.20 77.00 188.00
C 80.41 178.88 81.50 169.09 85.00 160.00
C 69.15 153.15 56.93 137.18 56.00 120.00 Z"/>
</g>
<g fill="#9AD1EF" fill-opacity="1.00" stroke="None">
<path d="
M 56.00 120.00 
C 55.84 117.03 55.94 113.97 56.00 111.00
C 55.64 113.98 55.50 116.91 56.00 120.00 Z"/>
</g>
<g fill="#FDFEFE" fill-opacity="1.00" stroke="None">
<path d="
M 121.00 225.00 
L 225.00 225.00
L 225.00 120.00
C 222.55 173.76 174.75 222.01 121.00 225.00 Z"/>
</g>
<g fill="#FEFEFE" fill-opacity="1.00" stroke="None">
<path d="
M 0.00 225.00 
L 99.00 225.00
C 99.00 224.50 99.00 224.00 99.00 224.00
C 47.57 220.06 4.41 173.07 0.00 123.00
L 0.00 225.00 Z"/>
</g>
<g fill="#9FD3EF" fill-opacity="1.00" stroke="None">
<path d="
M 99.00 225.00 
L 106.00 225.00
C 104.60 223.12 101.22 224.17 99.00 224.00
C 99.00 224.00 99.00 224.50 99.00 225.00 Z"/>
</g>
</svg>